<?xml version="1.0" encoding="UTF-8" standalone="no"?>
<svg
   xmlns:dc="http://purl.org/dc/elements/1.1/"
   xmlns:cc="http://creativecommons.org/ns#"
   xmlns:rdf="http://www.w3.org/1999/02/22-rdf-syntax-ns#"
   xmlns:svg="http://www.w3.org/2000/svg"
   xmlns="http://www.w3.org/2000/svg"
   xmlns:xlink="http://www.w3.org/1999/xlink"
   xmlns:sodipodi="http://sodipodi.sourceforge.net/DTD/sodipodi-0.dtd"
   xmlns:inkscape="http://www.inkscape.org/namespaces/inkscape"
   width="52.532143mm"
   height="57.95573mm"
   viewBox="0 0 52.532142 57.95573"
   version="1.1"
   id="svg8"
   inkscape:version="1.0.2 (394de47547, 2021-03-26)"
   sodipodi:docname="crest-modified.svg">
  <defs
     id="defs2">
    <linearGradient
       id="linearGradient2893">
      <stop
         style="stop-color:white;stop-opacity:0.3137255;"
         offset="0"
         id="stop2895" />
      <stop
         id="stop2897"
         offset="0.19"
         style="stop-color:white;stop-opacity:0.25098041;" />
      <stop
         style="stop-color:#6b6b6b;stop-opacity:0.1254902;"
         offset="0.60000002"
         id="stop2901" />
      <stop
         style="stop-color:black;stop-opacity:0.1254902;"
         offset="1"
         id="stop2899" />
    </linearGradient>
    <radialGradient
       inkscape:collect="always"
       xlink:href="#linearGradient2893"
       id="radialGradient3163"
       gradientUnits="userSpaceOnUse"
       gradientTransform="matrix(4.0791838,0,0,4.0579218,-336.61315,1252.8525)"
       cx="221.44487"
       cy="226.33101"
       fx="221.44487"
       fy="226.33101"
       r="300" />
    <radialGradient
       inkscape:collect="always"
       xlink:href="#linearGradient2893"
       id="radialGradient3547"
       gradientUnits="userSpaceOnUse"
       gradientTransform="matrix(4.0791838,0,0,4.0579218,-3814.3866,1556.7825)"
       cx="221.44487"
       cy="226.33101"
       fx="221.44487"
       fy="226.33101"
       r="300" />
  </defs>
  <sodipodi:namedview
     id="base"
     pagecolor="#ffffff"
     bordercolor="#666666"
     borderopacity="1.0"
     inkscape:pageopacity="0.0"
     inkscape:pageshadow="2"
     inkscape:zoom="3.959798"
     inkscape:cx="116.71913"
     inkscape:cy="86.715547"
     inkscape:document-units="mm"
     inkscape:current-layer="layer1"
     inkscape:document-rotation="0"
     showgrid="true"
     inkscape:window-width="1920"
     inkscape:window-height="1051"
     inkscape:window-x="0"
     inkscape:window-y="0"
     inkscape:window-maximized="1">
    <inkscape:grid
       type="xygrid"
       id="grid225"
       originx="-42.267253"
       originy="-54.115949" />
  </sodipodi:namedview>
  <metadata
     id="metadata5">
    <rdf:RDF>
      <cc:Work
         rdf:about="">
        <dc:format>image/svg+xml</dc:format>
        <dc:type
           rdf:resource="http://purl.org/dc/dcmitype/StillImage" />
        <dc:title />
      </cc:Work>
    </rdf:RDF>
  </metadata>
  <g
     inkscape:label="Layer 1"
     inkscape:groupmode="layer"
     id="layer1"
     transform="translate(-42.267255,-54.115948)">
    <g
       id="g223"
       transform="matrix(0.08777217,0,0,0.08795236,42.201675,54.08428)"
       style="stroke:#000000;stroke-width:1.50567;stroke-miterlimit:4;stroke-dasharray:none;stroke-opacity:1"
       inkscape:export-xdpi="72"
       inkscape:export-ydpi="72">
      <g
         id="layer3"
         inkscape:label="Fond écu"
         style="display:inline;stroke:#000000;stroke-width:1.50567;stroke-miterlimit:4;stroke-dasharray:none;stroke-opacity:1">
        <path
           style="fill:#2b5df2;fill-opacity:1;fill-rule:evenodd;stroke:#000000;stroke-width:1.50567;stroke-linecap:butt;stroke-linejoin:miter;stroke-miterlimit:4;stroke-dasharray:none;stroke-opacity:1"
           d="m 300,658.5 c 0,0 298.50001,-112.32031 298.50001,-397.77183 0,-285.451524 0,-258.5516935 0,-258.5516935 H 1.5 V 260.72817 C 1.5,546.17969 300,658.5 300,658.5 Z"
           id="path2855" />
        <path
           sodipodi:nodetypes="cccccc"
           d="m -853.70769,759.53195 c 0,0 298.5,-112.32031 298.5,-397.77183 0,-285.451504 0,-258.55168 0,-258.55168 h -597.00001 v 258.55168 c 0,285.45152 298.50001,397.77183 298.50001,397.77183 z"
           style="display:none;fill:url(#radialGradient3547);fill-opacity:1;fill-rule:evenodd;stroke:#000000;stroke-width:1.50567;stroke-linecap:butt;stroke-linejoin:miter;stroke-miterlimit:4;stroke-dasharray:none;stroke-opacity:1"
           id="path26937"
           inkscape:export-xdpi="144"
           inkscape:export-ydpi="144" />
        <path
           sodipodi:nodetypes="ccccc"
           d="m 300,658.5 c 0,0 298.50001,-112.32031 298.50001,-397.77183 0,-285.451524 0,-258.5516935 0,-258.5516935 L 92.416127,507.83411 C 180.22379,613.43032 300,658.5 300,658.5 Z"
           style="fill:#e20909;fill-opacity:1;fill-rule:evenodd;stroke:#000000;stroke-width:1.50567;stroke-linecap:butt;stroke-linejoin:miter;stroke-miterlimit:4;stroke-dasharray:none;stroke-opacity:1"
           id="path18653" />
        <g
           id="g40518"
           style="stroke:#000000;stroke-width:1.50567;stroke-miterlimit:4;stroke-dasharray:none;stroke-opacity:1">
          <path
             sodipodi:nodetypes="cccccccccccccccccccccccccc"
             id="path32902"
             d="M 255.5625,36.1875 236.23957,56.893258 225.40625,56.8125 204.35788,83.654419 194.09598,92.566895 180.9375,110.78125 161.66323,93.154536 146.14832,74.91411 130.15625,64.75 118.20054,73.338538 92.0625,102.84375 C 84.950408,97.715636 78.350646,91.947109 69.84375,88.5625 64.612166,94.576754 59.380581,103.07008 54.148997,110.81035 L 46.455478,117.56764 30.296549,137.07976 20.625,129.84375 C 14.25,133.92742 7.875,141.91983 1.5,149.625 v 111.09375 c 0,100.83086 37.259971,180.06832 85.4375,240.375 l 335.28125,-303 -34.90625,-52.375 -35.84897,-40.42837 -9.42168,-4.06446 -22.97935,-19.00717 -7.9375,4.75 z"
             style="display:inline;fill:#ffffff;fill-opacity:1;fill-rule:evenodd;stroke:#000000;stroke-width:1.50567;stroke-linecap:butt;stroke-linejoin:miter;stroke-miterlimit:4;stroke-dasharray:none;stroke-opacity:1" />
          <path
             sodipodi:nodetypes="ccc"
             id="path33875"
             d="m 31.14637,137.66695 c 6.522236,5.09421 10.447384,7.9405 13.749299,9.40004 l 11.644814,10.52242"
             style="fill:none;fill-rule:evenodd;stroke:#000000;stroke-width:1.50567;stroke-linecap:butt;stroke-linejoin:miter;stroke-miterlimit:4;stroke-dasharray:none;stroke-opacity:1" />
          <path
             sodipodi:nodetypes="cccccc"
             id="path33873"
             d="m 181.12596,111.01015 c 7.0263,7.23882 14.66848,11.39821 22.02694,16.97618 l 12.34631,8.97913 c 2.44324,2.10181 4.3155,1.34869 6.42562,1.78489 l 13.77743,3.82707 10.10153,4.48957"
             style="fill:none;fill-rule:evenodd;stroke:#000000;stroke-width:1.50567;stroke-linecap:butt;stroke-linejoin:miter;stroke-miterlimit:4;stroke-dasharray:none;stroke-opacity:1" />
          <path
             sodipodi:nodetypes="ccc"
             id="path33877"
             d="m 310.90251,89.263812 2.24478,10.662721 8.97913,12.907507"
             style="fill:none;fill-rule:evenodd;stroke:#000000;stroke-width:1.50567;stroke-linecap:butt;stroke-linejoin:miter;stroke-miterlimit:4;stroke-dasharray:none;stroke-opacity:1" />
          <path
             id="path33879"
             d="M 321.00403,116.76241 Z"
             style="fill:none;fill-rule:evenodd;stroke:#000000;stroke-width:1.50567;stroke-linecap:butt;stroke-linejoin:miter;stroke-miterlimit:4;stroke-dasharray:none;stroke-opacity:1" />
          <path
             sodipodi:nodetypes="cccccc"
             id="path33881"
             d="m 90.913729,102.03102 15.713481,10.24182 1.68359,6.17316 c 1.62184,1.04666 3.36156,2.03439 5.72337,2.71107 l 4.93935,2.33969 v 0"
             style="fill:none;fill-rule:evenodd;stroke:#000000;stroke-width:1.50567;stroke-linecap:butt;stroke-linejoin:miter;stroke-miterlimit:4;stroke-dasharray:none;stroke-opacity:1" />
        </g>
        <path
           style="display:inline;fill:#2b5df2;fill-opacity:1;fill-rule:evenodd;stroke:#000000;stroke-width:1.50567;stroke-linecap:butt;stroke-linejoin:miter;stroke-miterlimit:4;stroke-dasharray:none;stroke-opacity:1"
           d="M 493.5625,2.1875 49.6875,446.0625 C 75.853442,492.54441 109.83784,530.58926 144.28125,561 L 598.5,106.78125 c 0,-13.658917 0,-104.59375 0,-104.59375 z"
           id="path21569" />
      </g>
      <g
         id="layer4"
         inkscape:label="Meubles"
         style="display:inline;stroke:#000000;stroke-width:1.50567;stroke-miterlimit:4;stroke-dasharray:none;stroke-opacity:1">
        <g
           id="g28163"
           style="stroke:#000000;stroke-width:1.50567;stroke-miterlimit:4;stroke-dasharray:none;stroke-opacity:1">
          <g
             transform="matrix(0.1481878,0,0,0.1481878,935.56057,342.46959)"
             id="g18479"
             style="stroke:#000000;stroke-width:10.1606;stroke-miterlimit:4;stroke-dasharray:none;stroke-opacity:1">
            <path
               style="fill:#ffffff;fill-opacity:1;fill-rule:evenodd;stroke:#000000;stroke-width:10.1606;stroke-linecap:butt;stroke-linejoin:miter;stroke-miterlimit:4;stroke-dasharray:none;stroke-opacity:1"
               d="m -5563.4921,618.73016 c 106.5012,-90.45365 202.5663,19.23236 273.0159,42.85714 48.0432,-5.699 76.4118,-33.32664 124.0369,-83.80305 18.4877,-19.63272 80.7747,-35.58744 106.1218,-32.86362 15.1643,72.10115 -22.011,83.441 -75.5859,129.96619 -26.1617,22.71921 -47.888,39.73661 -65.6839,64.47826 41.1628,32.43726 91.384,42.74155 117.4603,116.66667 -70.2485,24.0704 -112.8444,-12.69483 -163.4921,-31.74603 62.3914,102.46205 -1.293,204.54638 -61.9047,262.69838 -57.102,-65.127 -35.262,-117.69114 -33.6107,-170.06271 1.2555,-39.81875 19.0814,-71.54549 49.4837,-121.2071 -43.6848,89.64269 -117.9463,157.88112 -169.0476,150 -22.1799,-44.10581 41.897,-153.20731 140.4761,-204.7619 -118.3902,10.41817 -202.7189,-73.01026 -241.2698,-122.22223 z"
               id="path14518"
               sodipodi:nodetypes="ccscsccccscccc" />
            <path
               style="fill:#ffffff;fill-opacity:1;fill-rule:evenodd;stroke:#000000;stroke-width:10.1606;stroke-linecap:butt;stroke-linejoin:miter;stroke-miterlimit:4;stroke-dasharray:none;stroke-opacity:1"
               d="m -5302.381,725.07936 c -41.9656,-0.75289 -108.565,-3.05403 -157.8481,2.39962 -72.472,8.01971 -151.4761,51.85626 -193.7392,122.99721 13.6607,23.29016 45.4546,17.21137 87.3311,19.77135 45.783,2.79878 117.0413,-7.49085 183.49,-31.18247 27.0431,-9.64197 65.2105,-33.74329 96.4564,-50.60645 3.7518,16.92519 -34.2907,-29.05796 -31.3406,-11.54904 3.5349,20.97898 19.3732,100.65352 31.427,134.3655 15.5945,43.61433 67.5778,77.96338 129.4615,91.58202 44.1761,-48.00149 16.0706,-112.26952 -19.5965,-158.30441 -26.2993,-33.94403 -56.9872,-51.59488 -72.467,-86.13999 45.9534,12.94488 97.4241,30.27057 155.5478,30.33952 93.9259,0.11143 192.4363,-32.052 217.4681,-104.9427 -80.1385,-46.45113 -174.164,-33.99819 -250.1799,-7.53212 -37.2335,12.9634 -75.5295,26.0234 -113.3122,39.27816 93.6347,-107.51079 120.9941,-241.36049 74.6032,-311.11112 -17.0282,-5.71632 -55.7834,26.34751 -67.9131,37.38243 -41.2363,37.51447 -53.0984,84.60026 -58.1036,145.97713 -3.6525,44.78993 -1.6443,73.72198 -2.5547,116.64044 -4.9811,-45.33048 3.4771,-92.77267 -7.6861,-135.2048 -20.9126,-79.49096 -56.0464,-155.84039 -134.3774,-174.31901 -43.4348,81.22651 -8.8827,142.11015 20.8106,208.09803 26.1301,58.06908 89.8637,67.25083 112.5227,122.0607 z"
               id="path14499"
               sodipodi:nodetypes="cscsscsscscscsccsscscsc" />
            <g
               id="g18468"
               transform="rotate(13.831079,-5349.5865,706.14411)"
               style="stroke:#000000;stroke-width:10.1606;stroke-miterlimit:4;stroke-dasharray:none;stroke-opacity:1">
              <path
                 sodipodi:nodetypes="ccssscc"
                 id="path14501"
                 d="m -5332.3695,737.20991 c -13.332,20.3303 -26.5643,33.05123 -4.2168,50.5935 14.1307,11.51587 29.8973,19.05186 46.6375,18.50251 10.5418,-0.34595 25.3478,-5.8026 30.5555,-15.4989 2.862,-5.32882 7.2441,-10.73027 7.0451,-16.81779 -0.3174,-9.71393 -1.5662,-24.26265 -9.4568,-29.54801 -25.7768,-14.31547 -46.8152,-34.19721 -70.5645,-7.23131 z"
                 style="fill:#fcef3c;fill-opacity:1;fill-rule:evenodd;stroke:#000000;stroke-width:10.1606;stroke-linecap:butt;stroke-linejoin:miter;stroke-miterlimit:4;stroke-dasharray:none;stroke-opacity:1" />
              <path
                 sodipodi:nodetypes="cccscc"
                 id="path14508"
                 d="m -5211.3097,711.59704 c -8.7457,-2.97744 -20.1433,6.66884 -25.563,14.44208 -11.2541,18.43316 -26.2517,32.79587 -6.3303,49.56995 11.9726,10.51265 25.6025,17.05945 40.5105,15.66918 9.388,-0.87551 22.8273,-6.95419 27.951,-16.67893 20.9694,-40.08313 -3.7684,-50.97684 -36.5682,-63.00228 z"
                 style="fill:#fcef3c;fill-opacity:1;fill-rule:evenodd;stroke:#000000;stroke-width:10.1606;stroke-linecap:butt;stroke-linejoin:miter;stroke-miterlimit:4;stroke-dasharray:none;stroke-opacity:1" />
              <path
                 sodipodi:nodetypes="cccscc"
                 id="path14510"
                 d="m -5242.1784,614.33733 c -8.2461,-2.91844 -18.4314,4.8881 -23.1424,11.33505 -10.8309,16.5661 -22.1275,27.76764 -3.8224,42.28369 11.5559,9.51993 24.4863,15.70468 38.2744,15.12998 8.6828,-0.36189 20.9122,-5.02164 25.2673,-13.15585 18.6275,-34.84371 -9.4432,-45.35469 -36.5769,-55.59287 z"
                 style="fill:#fcef3c;fill-opacity:1;fill-rule:evenodd;stroke:#000000;stroke-width:10.1606;stroke-linecap:butt;stroke-linejoin:miter;stroke-miterlimit:4;stroke-dasharray:none;stroke-opacity:1" />
              <path
                 sodipodi:nodetypes="ccccsss"
                 id="path14506"
                 d="m -5271.4749,665.8494 c -8.6523,-3.04438 -19.4297,5.35364 -24.4368,12.25994 -11.5716,17.95876 -23.6409,29.64685 -4.3554,45.08236 18.9471,15.87467 49.2019,24.47325 66.8352,1.60186 2.5535,-4.7819 6.4249,-9.64953 6.3372,-15.06408 -0.1403,-8.64017 -1.0204,-21.56995 -7.7831,-26.16399 -10.0273,-6.81178 -23.4532,-13.09133 -36.5971,-17.71609 z"
                 style="fill:#fcef3c;fill-opacity:1;fill-rule:evenodd;stroke:#000000;stroke-width:10.1606;stroke-linecap:butt;stroke-linejoin:miter;stroke-miterlimit:4;stroke-dasharray:none;stroke-opacity:1" />
              <path
                 sodipodi:nodetypes="cssssssss"
                 id="path14512"
                 d="m -5317.8143,603.43982 c -8.4099,-2.96335 -18.8637,5.15012 -23.7153,11.82909 -6.6977,9.22048 -12.695,18.39442 -14.0912,29.85854 -0.7645,6.27749 5.5787,10.17038 9.94,13.79006 11.754,9.75528 24.932,16.06155 39.0257,15.38871 8.8752,-0.42368 21.3997,-5.30227 25.8976,-13.72 2.4719,-4.62613 6.2238,-9.33295 6.1289,-14.57645 -0.1513,-8.36707 -1.029,-20.88939 -7.6061,-25.35001 -9.752,-6.6139 -22.8043,-12.71841 -35.5796,-17.21994 z"
                 style="fill:#fcef3c;fill-opacity:1;fill-rule:evenodd;stroke:#000000;stroke-width:10.1606;stroke-linecap:butt;stroke-linejoin:miter;stroke-miterlimit:4;stroke-dasharray:none;stroke-opacity:1" />
              <path
                 sodipodi:nodetypes="cccccss"
                 id="path14514"
                 d="m -5355.7313,656.13459 c -9.4407,-3.29766 -21.3218,6.14518 -26.8718,13.87208 -12.3435,19.4602 -26.4884,32.93675 -5.2177,50.15645 13.1252,11.05295 27.898,18.12908 43.789,17.18247 17.8035,-1.63356 34.1301,-14.58337 36.4415,-32.87802 -0.067,-9.60292 -0.9014,-23.96663 -8.2581,-29.00574 -10.908,-7.47165 -25.5415,-14.31773 -39.8829,-19.32724 z"
                 style="fill:#fcef3c;fill-opacity:1;fill-rule:evenodd;stroke:#000000;stroke-width:10.1606;stroke-linecap:butt;stroke-linejoin:miter;stroke-miterlimit:4;stroke-dasharray:none;stroke-opacity:1" />
              <path
                 sodipodi:nodetypes="cssssssss"
                 id="path14516"
                 d="m -5373.3722,733.87554 c -5.5182,-1.93267 -12.4368,3.52706 -15.6622,8.00264 -4.4529,6.17864 -8.4448,12.32276 -9.4209,19.97006 -0.5345,4.18748 3.6192,6.75002 6.4705,9.14046 7.6841,6.44238 16.3227,10.57899 25.5985,10.05978 5.8414,-0.32693 14.106,-3.64122 17.1076,-9.27381 1.6495,-3.09551 4.1416,-6.25124 4.1056,-9.74526 -0.058,-5.57549 -0.572,-13.91654 -4.8769,-16.85634 -6.3828,-4.35883 -14.9396,-8.36163 -23.3222,-11.29753 z"
                 style="fill:#fcef3c;fill-opacity:1;fill-rule:evenodd;stroke:#000000;stroke-width:10.1606;stroke-linecap:butt;stroke-linejoin:miter;stroke-miterlimit:4;stroke-dasharray:none;stroke-opacity:1" />
              <path
                 style="fill:#fcef3c;fill-opacity:1;fill-rule:evenodd;stroke:#000000;stroke-width:10.1606;stroke-linecap:butt;stroke-linejoin:miter;stroke-miterlimit:4;stroke-dasharray:none;stroke-opacity:1"
                 d="m -5240.8551,780.02663 c -6.0544,-2.14021 -13.5457,3.62134 -17.0138,8.37524 -7.917,11.50178 -15.6633,20.9732 -2.8561,31.14865 8.4781,6.99873 17.9701,11.53944 28.0998,11.10048 6.3789,-0.27647 15.3683,-3.72259 18.5769,-9.71883 14.4009,-24.5293 -6.811,-33.36742 -26.8068,-40.90554 z"
                 id="path14504"
                 sodipodi:nodetypes="cccscc" />
              <path
                 sodipodi:nodetypes="cccscc"
                 id="path18442"
                 d="m -5197.998,667.32822 c -6.0544,-2.14021 -13.5457,3.62134 -17.0138,8.37524 -7.917,11.50178 -15.6633,20.9732 -2.8561,31.14865 8.4781,6.99873 17.9701,11.53944 28.0998,11.10048 6.3789,-0.27647 15.3683,-3.72259 18.5769,-9.71883 14.4009,-24.5293 -6.811,-33.36742 -26.8068,-40.90554 z"
                 style="fill:#fcef3c;fill-opacity:1;fill-rule:evenodd;stroke:#000000;stroke-width:10.1606;stroke-linecap:butt;stroke-linejoin:miter;stroke-miterlimit:4;stroke-dasharray:none;stroke-opacity:1" />
            </g>
          </g>
          <g
             transform="matrix(0.1481878,0,0,0.1481878,1025.2431,251.59656)"
             id="g28085"
             style="stroke:#000000;stroke-width:10.1606;stroke-miterlimit:4;stroke-dasharray:none;stroke-opacity:1">
            <path
               style="fill:#ffffff;fill-opacity:1;fill-rule:evenodd;stroke:#000000;stroke-width:10.1606;stroke-linecap:butt;stroke-linejoin:miter;stroke-miterlimit:4;stroke-dasharray:none;stroke-opacity:1"
               d="m -5563.4921,618.73016 c 106.5012,-90.45365 202.5663,19.23236 273.0159,42.85714 48.0432,-5.699 76.4118,-33.32664 124.0369,-83.80305 18.4877,-19.63272 80.7747,-35.58744 106.1218,-32.86362 15.1643,72.10115 -22.011,83.441 -75.5859,129.96619 -26.1617,22.71921 -47.888,39.73661 -65.6839,64.47826 41.1628,32.43726 91.384,42.74155 117.4603,116.66667 -70.2485,24.0704 -112.8444,-12.69483 -163.4921,-31.74603 62.3914,102.46205 -1.293,204.54638 -61.9047,262.69838 -57.102,-65.127 -35.262,-117.69114 -33.6107,-170.06271 1.2555,-39.81875 19.0814,-71.54549 49.4837,-121.2071 -43.6848,89.64269 -117.9463,157.88112 -169.0476,150 -22.1799,-44.10581 41.897,-153.20731 140.4761,-204.7619 -118.3902,10.41817 -202.7189,-73.01026 -241.2698,-122.22223 z"
               id="path28087"
               sodipodi:nodetypes="ccscsccccscccc" />
            <path
               style="fill:#ffffff;fill-opacity:1;fill-rule:evenodd;stroke:#000000;stroke-width:10.1606;stroke-linecap:butt;stroke-linejoin:miter;stroke-miterlimit:4;stroke-dasharray:none;stroke-opacity:1"
               d="m -5302.381,725.07936 c -41.9656,-0.75289 -108.565,-3.05403 -157.8481,2.39962 -72.472,8.01971 -151.4761,51.85626 -193.7392,122.99721 13.6607,23.29016 45.4546,17.21137 87.3311,19.77135 45.783,2.79878 117.0413,-7.49085 183.49,-31.18247 27.0431,-9.64197 65.2105,-33.74329 96.4564,-50.60645 3.7518,16.92519 -34.2907,-29.05796 -31.3406,-11.54904 3.5349,20.97898 19.3732,100.65352 31.427,134.3655 15.5945,43.61433 67.5778,77.96338 129.4615,91.58202 44.1761,-48.00149 16.0706,-112.26952 -19.5965,-158.30441 -26.2993,-33.94403 -56.9872,-51.59488 -72.467,-86.13999 45.9534,12.94488 97.4241,30.27057 155.5478,30.33952 93.9259,0.11143 192.4363,-32.052 217.4681,-104.9427 -80.1385,-46.45113 -174.164,-33.99819 -250.1799,-7.53212 -37.2335,12.9634 -75.5295,26.0234 -113.3122,39.27816 93.6347,-107.51079 120.9941,-241.36049 74.6032,-311.11112 -17.0282,-5.71632 -55.7834,26.34751 -67.9131,37.38243 -41.2363,37.51447 -53.0984,84.60026 -58.1036,145.97713 -3.6525,44.78993 -1.6443,73.72198 -2.5547,116.64044 -4.9811,-45.33048 3.4771,-92.77267 -7.6861,-135.2048 -20.9126,-79.49096 -56.0464,-155.84039 -134.3774,-174.31901 -43.4348,81.22651 -8.8827,142.11015 20.8106,208.09803 26.1301,58.06908 89.8637,67.25083 112.5227,122.0607 z"
               id="path28089"
               sodipodi:nodetypes="cscsscsscscscsccsscscsc" />
            <g
               id="g28091"
               transform="rotate(13.831079,-5349.5865,706.14411)"
               style="stroke:#000000;stroke-width:10.1606;stroke-miterlimit:4;stroke-dasharray:none;stroke-opacity:1">
              <path
                 sodipodi:nodetypes="ccssscc"
                 id="path28093"
                 d="m -5332.3695,737.20991 c -13.332,20.3303 -26.5643,33.05123 -4.2168,50.5935 14.1307,11.51587 29.8973,19.05186 46.6375,18.50251 10.5418,-0.34595 25.3478,-5.8026 30.5555,-15.4989 2.862,-5.32882 7.2441,-10.73027 7.0451,-16.81779 -0.3174,-9.71393 -1.5662,-24.26265 -9.4568,-29.54801 -25.7768,-14.31547 -46.8152,-34.19721 -70.5645,-7.23131 z"
                 style="fill:#fcef3c;fill-opacity:1;fill-rule:evenodd;stroke:#000000;stroke-width:10.1606;stroke-linecap:butt;stroke-linejoin:miter;stroke-miterlimit:4;stroke-dasharray:none;stroke-opacity:1" />
              <path
                 sodipodi:nodetypes="cccscc"
                 id="path28095"
                 d="m -5211.3097,711.59704 c -8.7457,-2.97744 -20.1433,6.66884 -25.563,14.44208 -11.2541,18.43316 -26.2517,32.79587 -6.3303,49.56995 11.9726,10.51265 25.6025,17.05945 40.5105,15.66918 9.388,-0.87551 22.8273,-6.95419 27.951,-16.67893 20.9694,-40.08313 -3.7684,-50.97684 -36.5682,-63.00228 z"
                 style="fill:#fcef3c;fill-opacity:1;fill-rule:evenodd;stroke:#000000;stroke-width:10.1606;stroke-linecap:butt;stroke-linejoin:miter;stroke-miterlimit:4;stroke-dasharray:none;stroke-opacity:1" />
              <path
                 sodipodi:nodetypes="cccscc"
                 id="path28097"
                 d="m -5242.1784,614.33733 c -8.2461,-2.91844 -18.4314,4.8881 -23.1424,11.33505 -10.8309,16.5661 -22.1275,27.76764 -3.8224,42.28369 11.5559,9.51993 24.4863,15.70468 38.2744,15.12998 8.6828,-0.36189 20.9122,-5.02164 25.2673,-13.15585 18.6275,-34.84371 -9.4432,-45.35469 -36.5769,-55.59287 z"
                 style="fill:#fcef3c;fill-opacity:1;fill-rule:evenodd;stroke:#000000;stroke-width:10.1606;stroke-linecap:butt;stroke-linejoin:miter;stroke-miterlimit:4;stroke-dasharray:none;stroke-opacity:1" />
              <path
                 sodipodi:nodetypes="ccccsss"
                 id="path28099"
                 d="m -5271.4749,665.8494 c -8.6523,-3.04438 -19.4297,5.35364 -24.4368,12.25994 -11.5716,17.95876 -23.6409,29.64685 -4.3554,45.08236 18.9471,15.87467 49.2019,24.47325 66.8352,1.60186 2.5535,-4.7819 6.4249,-9.64953 6.3372,-15.06408 -0.1403,-8.64017 -1.0204,-21.56995 -7.7831,-26.16399 -10.0273,-6.81178 -23.4532,-13.09133 -36.5971,-17.71609 z"
                 style="fill:#fcef3c;fill-opacity:1;fill-rule:evenodd;stroke:#000000;stroke-width:10.1606;stroke-linecap:butt;stroke-linejoin:miter;stroke-miterlimit:4;stroke-dasharray:none;stroke-opacity:1" />
              <path
                 sodipodi:nodetypes="cssssssss"
                 id="path28101"
                 d="m -5317.8143,603.43982 c -8.4099,-2.96335 -18.8637,5.15012 -23.7153,11.82909 -6.6977,9.22048 -12.695,18.39442 -14.0912,29.85854 -0.7645,6.27749 5.5787,10.17038 9.94,13.79006 11.754,9.75528 24.932,16.06155 39.0257,15.38871 8.8752,-0.42368 21.3997,-5.30227 25.8976,-13.72 2.4719,-4.62613 6.2238,-9.33295 6.1289,-14.57645 -0.1513,-8.36707 -1.029,-20.88939 -7.6061,-25.35001 -9.752,-6.6139 -22.8043,-12.71841 -35.5796,-17.21994 z"
                 style="fill:#fcef3c;fill-opacity:1;fill-rule:evenodd;stroke:#000000;stroke-width:10.1606;stroke-linecap:butt;stroke-linejoin:miter;stroke-miterlimit:4;stroke-dasharray:none;stroke-opacity:1" />
              <path
                 sodipodi:nodetypes="cccccss"
                 id="path28103"
                 d="m -5355.7313,656.13459 c -9.4407,-3.29766 -21.3218,6.14518 -26.8718,13.87208 -12.3435,19.4602 -26.4884,32.93675 -5.2177,50.15645 13.1252,11.05295 27.898,18.12908 43.789,17.18247 17.8035,-1.63356 34.1301,-14.58337 36.4415,-32.87802 -0.067,-9.60292 -0.9014,-23.96663 -8.2581,-29.00574 -10.908,-7.47165 -25.5415,-14.31773 -39.8829,-19.32724 z"
                 style="fill:#fcef3c;fill-opacity:1;fill-rule:evenodd;stroke:#000000;stroke-width:10.1606;stroke-linecap:butt;stroke-linejoin:miter;stroke-miterlimit:4;stroke-dasharray:none;stroke-opacity:1" />
              <path
                 sodipodi:nodetypes="cssssssss"
                 id="path28105"
                 d="m -5373.3722,733.87554 c -5.5182,-1.93267 -12.4368,3.52706 -15.6622,8.00264 -4.4529,6.17864 -8.4448,12.32276 -9.4209,19.97006 -0.5345,4.18748 3.6192,6.75002 6.4705,9.14046 7.6841,6.44238 16.3227,10.57899 25.5985,10.05978 5.8414,-0.32693 14.106,-3.64122 17.1076,-9.27381 1.6495,-3.09551 4.1416,-6.25124 4.1056,-9.74526 -0.058,-5.57549 -0.572,-13.91654 -4.8769,-16.85634 -6.3828,-4.35883 -14.9396,-8.36163 -23.3222,-11.29753 z"
                 style="fill:#fcef3c;fill-opacity:1;fill-rule:evenodd;stroke:#000000;stroke-width:10.1606;stroke-linecap:butt;stroke-linejoin:miter;stroke-miterlimit:4;stroke-dasharray:none;stroke-opacity:1" />
              <path
                 style="fill:#fcef3c;fill-opacity:1;fill-rule:evenodd;stroke:#000000;stroke-width:10.1606;stroke-linecap:butt;stroke-linejoin:miter;stroke-miterlimit:4;stroke-dasharray:none;stroke-opacity:1"
                 d="m -5240.8551,780.02663 c -6.0544,-2.14021 -13.5457,3.62134 -17.0138,8.37524 -7.917,11.50178 -15.6633,20.9732 -2.8561,31.14865 8.4781,6.99873 17.9701,11.53944 28.0998,11.10048 6.3789,-0.27647 15.3683,-3.72259 18.5769,-9.71883 14.4009,-24.5293 -6.811,-33.36742 -26.8068,-40.90554 z"
                 id="path28107"
                 sodipodi:nodetypes="cccscc" />
              <path
                 sodipodi:nodetypes="cccscc"
                 id="path28109"
                 d="m -5197.998,667.32822 c -6.0544,-2.14021 -13.5457,3.62134 -17.0138,8.37524 -7.917,11.50178 -15.6633,20.9732 -2.8561,31.14865 8.4781,6.99873 17.9701,11.53944 28.0998,11.10048 6.3789,-0.27647 15.3683,-3.72259 18.5769,-9.71883 14.4009,-24.5293 -6.811,-33.36742 -26.8068,-40.90554 z"
                 style="fill:#fcef3c;fill-opacity:1;fill-rule:evenodd;stroke:#000000;stroke-width:10.1606;stroke-linecap:butt;stroke-linejoin:miter;stroke-miterlimit:4;stroke-dasharray:none;stroke-opacity:1" />
            </g>
          </g>
          <g
             transform="matrix(0.1481878,0,0,0.1481878,1114.9256,160.72354)"
             id="g28111"
             style="stroke:#000000;stroke-width:10.1606;stroke-miterlimit:4;stroke-dasharray:none;stroke-opacity:1">
            <path
               style="fill:#ffffff;fill-opacity:1;fill-rule:evenodd;stroke:#000000;stroke-width:10.1606;stroke-linecap:butt;stroke-linejoin:miter;stroke-miterlimit:4;stroke-dasharray:none;stroke-opacity:1"
               d="m -5563.4921,618.73016 c 106.5012,-90.45365 202.5663,19.23236 273.0159,42.85714 48.0432,-5.699 76.4118,-33.32664 124.0369,-83.80305 18.4877,-19.63272 80.7747,-35.58744 106.1218,-32.86362 15.1643,72.10115 -22.011,83.441 -75.5859,129.96619 -26.1617,22.71921 -47.888,39.73661 -65.6839,64.47826 41.1628,32.43726 91.384,42.74155 117.4603,116.66667 -70.2485,24.0704 -112.8444,-12.69483 -163.4921,-31.74603 62.3914,102.46205 -1.293,204.54638 -61.9047,262.69838 -57.102,-65.127 -35.262,-117.69114 -33.6107,-170.06271 1.2555,-39.81875 19.0814,-71.54549 49.4837,-121.2071 -43.6848,89.64269 -117.9463,157.88112 -169.0476,150 -22.1799,-44.10581 41.897,-153.20731 140.4761,-204.7619 -118.3902,10.41817 -202.7189,-73.01026 -241.2698,-122.22223 z"
               id="path28113"
               sodipodi:nodetypes="ccscsccccscccc" />
            <path
               style="fill:#ffffff;fill-opacity:1;fill-rule:evenodd;stroke:#000000;stroke-width:10.1606;stroke-linecap:butt;stroke-linejoin:miter;stroke-miterlimit:4;stroke-dasharray:none;stroke-opacity:1"
               d="m -5302.381,725.07936 c -41.9656,-0.75289 -108.565,-3.05403 -157.8481,2.39962 -72.472,8.01971 -151.4761,51.85626 -193.7392,122.99721 13.6607,23.29016 45.4546,17.21137 87.3311,19.77135 45.783,2.79878 117.0413,-7.49085 183.49,-31.18247 27.0431,-9.64197 65.2105,-33.74329 96.4564,-50.60645 3.7518,16.92519 -34.2907,-29.05796 -31.3406,-11.54904 3.5349,20.97898 19.3732,100.65352 31.427,134.3655 15.5945,43.61433 67.5778,77.96338 129.4615,91.58202 44.1761,-48.00149 16.0706,-112.26952 -19.5965,-158.30441 -26.2993,-33.94403 -56.9872,-51.59488 -72.467,-86.13999 45.9534,12.94488 97.4241,30.27057 155.5478,30.33952 93.9259,0.11143 192.4363,-32.052 217.4681,-104.9427 -80.1385,-46.45113 -174.164,-33.99819 -250.1799,-7.53212 -37.2335,12.9634 -75.5295,26.0234 -113.3122,39.27816 93.6347,-107.51079 120.9941,-241.36049 74.6032,-311.11112 -17.0282,-5.71632 -55.7834,26.34751 -67.9131,37.38243 -41.2363,37.51447 -53.0984,84.60026 -58.1036,145.97713 -3.6525,44.78993 -1.6443,73.72198 -2.5547,116.64044 -4.9811,-45.33048 3.4771,-92.77267 -7.6861,-135.2048 -20.9126,-79.49096 -56.0464,-155.84039 -134.3774,-174.31901 -43.4348,81.22651 -8.8827,142.11015 20.8106,208.09803 26.1301,58.06908 89.8637,67.25083 112.5227,122.0607 z"
               id="path28115"
               sodipodi:nodetypes="cscsscsscscscsccsscscsc" />
            <g
               id="g28117"
               transform="rotate(13.831079,-5349.5865,706.14411)"
               style="stroke:#000000;stroke-width:10.1606;stroke-miterlimit:4;stroke-dasharray:none;stroke-opacity:1">
              <path
                 sodipodi:nodetypes="ccssscc"
                 id="path28119"
                 d="m -5332.3695,737.20991 c -13.332,20.3303 -26.5643,33.05123 -4.2168,50.5935 14.1307,11.51587 29.8973,19.05186 46.6375,18.50251 10.5418,-0.34595 25.3478,-5.8026 30.5555,-15.4989 2.862,-5.32882 7.2441,-10.73027 7.0451,-16.81779 -0.3174,-9.71393 -1.5662,-24.26265 -9.4568,-29.54801 -25.7768,-14.31547 -46.8152,-34.19721 -70.5645,-7.23131 z"
                 style="fill:#fcef3c;fill-opacity:1;fill-rule:evenodd;stroke:#000000;stroke-width:10.1606;stroke-linecap:butt;stroke-linejoin:miter;stroke-miterlimit:4;stroke-dasharray:none;stroke-opacity:1" />
              <path
                 sodipodi:nodetypes="cccscc"
                 id="path28121"
                 d="m -5211.3097,711.59704 c -8.7457,-2.97744 -20.1433,6.66884 -25.563,14.44208 -11.2541,18.43316 -26.2517,32.79587 -6.3303,49.56995 11.9726,10.51265 25.6025,17.05945 40.5105,15.66918 9.388,-0.87551 22.8273,-6.95419 27.951,-16.67893 20.9694,-40.08313 -3.7684,-50.97684 -36.5682,-63.00228 z"
                 style="fill:#fcef3c;fill-opacity:1;fill-rule:evenodd;stroke:#000000;stroke-width:10.1606;stroke-linecap:butt;stroke-linejoin:miter;stroke-miterlimit:4;stroke-dasharray:none;stroke-opacity:1" />
              <path
                 sodipodi:nodetypes="cccscc"
                 id="path28123"
                 d="m -5242.1784,614.33733 c -8.2461,-2.91844 -18.4314,4.8881 -23.1424,11.33505 -10.8309,16.5661 -22.1275,27.76764 -3.8224,42.28369 11.5559,9.51993 24.4863,15.70468 38.2744,15.12998 8.6828,-0.36189 20.9122,-5.02164 25.2673,-13.15585 18.6275,-34.84371 -9.4432,-45.35469 -36.5769,-55.59287 z"
                 style="fill:#fcef3c;fill-opacity:1;fill-rule:evenodd;stroke:#000000;stroke-width:10.1606;stroke-linecap:butt;stroke-linejoin:miter;stroke-miterlimit:4;stroke-dasharray:none;stroke-opacity:1" />
              <path
                 sodipodi:nodetypes="ccccsss"
                 id="path28125"
                 d="m -5271.4749,665.8494 c -8.6523,-3.04438 -19.4297,5.35364 -24.4368,12.25994 -11.5716,17.95876 -23.6409,29.64685 -4.3554,45.08236 18.9471,15.87467 49.2019,24.47325 66.8352,1.60186 2.5535,-4.7819 6.4249,-9.64953 6.3372,-15.06408 -0.1403,-8.64017 -1.0204,-21.56995 -7.7831,-26.16399 -10.0273,-6.81178 -23.4532,-13.09133 -36.5971,-17.71609 z"
                 style="fill:#fcef3c;fill-opacity:1;fill-rule:evenodd;stroke:#000000;stroke-width:10.1606;stroke-linecap:butt;stroke-linejoin:miter;stroke-miterlimit:4;stroke-dasharray:none;stroke-opacity:1" />
              <path
                 sodipodi:nodetypes="cssssssss"
                 id="path28127"
                 d="m -5317.8143,603.43982 c -8.4099,-2.96335 -18.8637,5.15012 -23.7153,11.82909 -6.6977,9.22048 -12.695,18.39442 -14.0912,29.85854 -0.7645,6.27749 5.5787,10.17038 9.94,13.79006 11.754,9.75528 24.932,16.06155 39.0257,15.38871 8.8752,-0.42368 21.3997,-5.30227 25.8976,-13.72 2.4719,-4.62613 6.2238,-9.33295 6.1289,-14.57645 -0.1513,-8.36707 -1.029,-20.88939 -7.6061,-25.35001 -9.752,-6.6139 -22.8043,-12.71841 -35.5796,-17.21994 z"
                 style="fill:#fcef3c;fill-opacity:1;fill-rule:evenodd;stroke:#000000;stroke-width:10.1606;stroke-linecap:butt;stroke-linejoin:miter;stroke-miterlimit:4;stroke-dasharray:none;stroke-opacity:1" />
              <path
                 sodipodi:nodetypes="cccccss"
                 id="path28129"
                 d="m -5355.7313,656.13459 c -9.4407,-3.29766 -21.3218,6.14518 -26.8718,13.87208 -12.3435,19.4602 -26.4884,32.93675 -5.2177,50.15645 13.1252,11.05295 27.898,18.12908 43.789,17.18247 17.8035,-1.63356 34.1301,-14.58337 36.4415,-32.87802 -0.067,-9.60292 -0.9014,-23.96663 -8.2581,-29.00574 -10.908,-7.47165 -25.5415,-14.31773 -39.8829,-19.32724 z"
                 style="fill:#fcef3c;fill-opacity:1;fill-rule:evenodd;stroke:#000000;stroke-width:10.1606;stroke-linecap:butt;stroke-linejoin:miter;stroke-miterlimit:4;stroke-dasharray:none;stroke-opacity:1" />
              <path
                 sodipodi:nodetypes="cssssssss"
                 id="path28131"
                 d="m -5373.3722,733.87554 c -5.5182,-1.93267 -12.4368,3.52706 -15.6622,8.00264 -4.4529,6.17864 -8.4448,12.32276 -9.4209,19.97006 -0.5345,4.18748 3.6192,6.75002 6.4705,9.14046 7.6841,6.44238 16.3227,10.57899 25.5985,10.05978 5.8414,-0.32693 14.106,-3.64122 17.1076,-9.27381 1.6495,-3.09551 4.1416,-6.25124 4.1056,-9.74526 -0.058,-5.57549 -0.572,-13.91654 -4.8769,-16.85634 -6.3828,-4.35883 -14.9396,-8.36163 -23.3222,-11.29753 z"
                 style="fill:#fcef3c;fill-opacity:1;fill-rule:evenodd;stroke:#000000;stroke-width:10.1606;stroke-linecap:butt;stroke-linejoin:miter;stroke-miterlimit:4;stroke-dasharray:none;stroke-opacity:1" />
              <path
                 style="fill:#fcef3c;fill-opacity:1;fill-rule:evenodd;stroke:#000000;stroke-width:10.1606;stroke-linecap:butt;stroke-linejoin:miter;stroke-miterlimit:4;stroke-dasharray:none;stroke-opacity:1"
                 d="m -5240.8551,780.02663 c -6.0544,-2.14021 -13.5457,3.62134 -17.0138,8.37524 -7.917,11.50178 -15.6633,20.9732 -2.8561,31.14865 8.4781,6.99873 17.9701,11.53944 28.0998,11.10048 6.3789,-0.27647 15.3683,-3.72259 18.5769,-9.71883 14.4009,-24.5293 -6.811,-33.36742 -26.8068,-40.90554 z"
                 id="path28133"
                 sodipodi:nodetypes="cccscc" />
              <path
                 sodipodi:nodetypes="cccscc"
                 id="path28135"
                 d="m -5197.998,667.32822 c -6.0544,-2.14021 -13.5457,3.62134 -17.0138,8.37524 -7.917,11.50178 -15.6633,20.9732 -2.8561,31.14865 8.4781,6.99873 17.9701,11.53944 28.0998,11.10048 6.3789,-0.27647 15.3683,-3.72259 18.5769,-9.71883 14.4009,-24.5293 -6.811,-33.36742 -26.8068,-40.90554 z"
                 style="fill:#fcef3c;fill-opacity:1;fill-rule:evenodd;stroke:#000000;stroke-width:10.1606;stroke-linecap:butt;stroke-linejoin:miter;stroke-miterlimit:4;stroke-dasharray:none;stroke-opacity:1" />
            </g>
          </g>
          <g
             transform="matrix(0.1481878,0,0,0.1481878,1204.6082,69.850525)"
             id="g28137"
             style="stroke:#000000;stroke-width:10.1606;stroke-miterlimit:4;stroke-dasharray:none;stroke-opacity:1">
            <path
               style="fill:#ffffff;fill-opacity:1;fill-rule:evenodd;stroke:#000000;stroke-width:10.1606;stroke-linecap:butt;stroke-linejoin:miter;stroke-miterlimit:4;stroke-dasharray:none;stroke-opacity:1"
               d="m -5563.4921,618.73016 c 106.5012,-90.45365 202.5663,19.23236 273.0159,42.85714 48.0432,-5.699 76.4118,-33.32664 124.0369,-83.80305 18.4877,-19.63272 80.7747,-35.58744 106.1218,-32.86362 15.1643,72.10115 -22.011,83.441 -75.5859,129.96619 -26.1617,22.71921 -47.888,39.73661 -65.6839,64.47826 41.1628,32.43726 91.384,42.74155 117.4603,116.66667 -70.2485,24.0704 -112.8444,-12.69483 -163.4921,-31.74603 62.3914,102.46205 -1.293,204.54638 -61.9047,262.69838 -57.102,-65.127 -35.262,-117.69114 -33.6107,-170.06271 1.2555,-39.81875 19.0814,-71.54549 49.4837,-121.2071 -43.6848,89.64269 -117.9463,157.88112 -169.0476,150 -22.1799,-44.10581 41.897,-153.20731 140.4761,-204.7619 -118.3902,10.41817 -202.7189,-73.01026 -241.2698,-122.22223 z"
               id="path28139"
               sodipodi:nodetypes="ccscsccccscccc" />
            <path
               style="fill:#ffffff;fill-opacity:1;fill-rule:evenodd;stroke:#000000;stroke-width:10.1606;stroke-linecap:butt;stroke-linejoin:miter;stroke-miterlimit:4;stroke-dasharray:none;stroke-opacity:1"
               d="m -5302.381,725.07936 c -41.9656,-0.75289 -108.565,-3.05403 -157.8481,2.39962 -72.472,8.01971 -151.4761,51.85626 -193.7392,122.99721 13.6607,23.29016 45.4546,17.21137 87.3311,19.77135 45.783,2.79878 117.0413,-7.49085 183.49,-31.18247 27.0431,-9.64197 65.2105,-33.74329 96.4564,-50.60645 3.7518,16.92519 -34.2907,-29.05796 -31.3406,-11.54904 3.5349,20.97898 19.3732,100.65352 31.427,134.3655 15.5945,43.61433 67.5778,77.96338 129.4615,91.58202 44.1761,-48.00149 16.0706,-112.26952 -19.5965,-158.30441 -26.2993,-33.94403 -56.9872,-51.59488 -72.467,-86.13999 45.9534,12.94488 97.4241,30.27057 155.5478,30.33952 93.9259,0.11143 192.4363,-32.052 217.4681,-104.9427 -80.1385,-46.45113 -174.164,-33.99819 -250.1799,-7.53212 -37.2335,12.9634 -75.5295,26.0234 -113.3122,39.27816 93.6347,-107.51079 120.9941,-241.36049 74.6032,-311.11112 -17.0282,-5.71632 -55.7834,26.34751 -67.9131,37.38243 -41.2363,37.51447 -53.0984,84.60026 -58.1036,145.97713 -3.6525,44.78993 -1.6443,73.72198 -2.5547,116.64044 -4.9811,-45.33048 3.4771,-92.77267 -7.6861,-135.2048 -20.9126,-79.49096 -56.0464,-155.84039 -134.3774,-174.31901 -43.4348,81.22651 -8.8827,142.11015 20.8106,208.09803 26.1301,58.06908 89.8637,67.25083 112.5227,122.0607 z"
               id="path28141"
               sodipodi:nodetypes="cscsscsscscscsccsscscsc" />
            <g
               id="g28143"
               transform="rotate(13.831079,-5349.5865,706.14411)"
               style="stroke:#000000;stroke-width:10.1606;stroke-miterlimit:4;stroke-dasharray:none;stroke-opacity:1">
              <path
                 sodipodi:nodetypes="ccssscc"
                 id="path28145"
                 d="m -5332.3695,737.20991 c -13.332,20.3303 -26.5643,33.05123 -4.2168,50.5935 14.1307,11.51587 29.8973,19.05186 46.6375,18.50251 10.5418,-0.34595 25.3478,-5.8026 30.5555,-15.4989 2.862,-5.32882 7.2441,-10.73027 7.0451,-16.81779 -0.3174,-9.71393 -1.5662,-24.26265 -9.4568,-29.54801 -25.7768,-14.31547 -46.8152,-34.19721 -70.5645,-7.23131 z"
                 style="fill:#fcef3c;fill-opacity:1;fill-rule:evenodd;stroke:#000000;stroke-width:10.1606;stroke-linecap:butt;stroke-linejoin:miter;stroke-miterlimit:4;stroke-dasharray:none;stroke-opacity:1" />
              <path
                 sodipodi:nodetypes="cccscc"
                 id="path28147"
                 d="m -5211.3097,711.59704 c -8.7457,-2.97744 -20.1433,6.66884 -25.563,14.44208 -11.2541,18.43316 -26.2517,32.79587 -6.3303,49.56995 11.9726,10.51265 25.6025,17.05945 40.5105,15.66918 9.388,-0.87551 22.8273,-6.95419 27.951,-16.67893 20.9694,-40.08313 -3.7684,-50.97684 -36.5682,-63.00228 z"
                 style="fill:#fcef3c;fill-opacity:1;fill-rule:evenodd;stroke:#000000;stroke-width:10.1606;stroke-linecap:butt;stroke-linejoin:miter;stroke-miterlimit:4;stroke-dasharray:none;stroke-opacity:1" />
              <path
                 sodipodi:nodetypes="cccscc"
                 id="path28149"
                 d="m -5242.1784,614.33733 c -8.2461,-2.91844 -18.4314,4.8881 -23.1424,11.33505 -10.8309,16.5661 -22.1275,27.76764 -3.8224,42.28369 11.5559,9.51993 24.4863,15.70468 38.2744,15.12998 8.6828,-0.36189 20.9122,-5.02164 25.2673,-13.15585 18.6275,-34.84371 -9.4432,-45.35469 -36.5769,-55.59287 z"
                 style="fill:#fcef3c;fill-opacity:1;fill-rule:evenodd;stroke:#000000;stroke-width:10.1606;stroke-linecap:butt;stroke-linejoin:miter;stroke-miterlimit:4;stroke-dasharray:none;stroke-opacity:1" />
              <path
                 sodipodi:nodetypes="ccccsss"
                 id="path28151"
                 d="m -5271.4749,665.8494 c -8.6523,-3.04438 -19.4297,5.35364 -24.4368,12.25994 -11.5716,17.95876 -23.6409,29.64685 -4.3554,45.08236 18.9471,15.87467 49.2019,24.47325 66.8352,1.60186 2.5535,-4.7819 6.4249,-9.64953 6.3372,-15.06408 -0.1403,-8.64017 -1.0204,-21.56995 -7.7831,-26.16399 -10.0273,-6.81178 -23.4532,-13.09133 -36.5971,-17.71609 z"
                 style="fill:#fcef3c;fill-opacity:1;fill-rule:evenodd;stroke:#000000;stroke-width:10.1606;stroke-linecap:butt;stroke-linejoin:miter;stroke-miterlimit:4;stroke-dasharray:none;stroke-opacity:1" />
              <path
                 sodipodi:nodetypes="cssssssss"
                 id="path28153"
                 d="m -5317.8143,603.43982 c -8.4099,-2.96335 -18.8637,5.15012 -23.7153,11.82909 -6.6977,9.22048 -12.695,18.39442 -14.0912,29.85854 -0.7645,6.27749 5.5787,10.17038 9.94,13.79006 11.754,9.75528 24.932,16.06155 39.0257,15.38871 8.8752,-0.42368 21.3997,-5.30227 25.8976,-13.72 2.4719,-4.62613 6.2238,-9.33295 6.1289,-14.57645 -0.1513,-8.36707 -1.029,-20.88939 -7.6061,-25.35001 -9.752,-6.6139 -22.8043,-12.71841 -35.5796,-17.21994 z"
                 style="fill:#fcef3c;fill-opacity:1;fill-rule:evenodd;stroke:#000000;stroke-width:10.1606;stroke-linecap:butt;stroke-linejoin:miter;stroke-miterlimit:4;stroke-dasharray:none;stroke-opacity:1" />
              <path
                 sodipodi:nodetypes="cccccss"
                 id="path28155"
                 d="m -5355.7313,656.13459 c -9.4407,-3.29766 -21.3218,6.14518 -26.8718,13.87208 -12.3435,19.4602 -26.4884,32.93675 -5.2177,50.15645 13.1252,11.05295 27.898,18.12908 43.789,17.18247 17.8035,-1.63356 34.1301,-14.58337 36.4415,-32.87802 -0.067,-9.60292 -0.9014,-23.96663 -8.2581,-29.00574 -10.908,-7.47165 -25.5415,-14.31773 -39.8829,-19.32724 z"
                 style="fill:#fcef3c;fill-opacity:1;fill-rule:evenodd;stroke:#000000;stroke-width:10.1606;stroke-linecap:butt;stroke-linejoin:miter;stroke-miterlimit:4;stroke-dasharray:none;stroke-opacity:1" />
              <path
                 sodipodi:nodetypes="cssssssss"
                 id="path28157"
                 d="m -5373.3722,733.87554 c -5.5182,-1.93267 -12.4368,3.52706 -15.6622,8.00264 -4.4529,6.17864 -8.4448,12.32276 -9.4209,19.97006 -0.5345,4.18748 3.6192,6.75002 6.4705,9.14046 7.6841,6.44238 16.3227,10.57899 25.5985,10.05978 5.8414,-0.32693 14.106,-3.64122 17.1076,-9.27381 1.6495,-3.09551 4.1416,-6.25124 4.1056,-9.74526 -0.058,-5.57549 -0.572,-13.91654 -4.8769,-16.85634 -6.3828,-4.35883 -14.9396,-8.36163 -23.3222,-11.29753 z"
                 style="fill:#fcef3c;fill-opacity:1;fill-rule:evenodd;stroke:#000000;stroke-width:10.1606;stroke-linecap:butt;stroke-linejoin:miter;stroke-miterlimit:4;stroke-dasharray:none;stroke-opacity:1" />
              <path
                 style="fill:#fcef3c;fill-opacity:1;fill-rule:evenodd;stroke:#000000;stroke-width:10.1606;stroke-linecap:butt;stroke-linejoin:miter;stroke-miterlimit:4;stroke-dasharray:none;stroke-opacity:1"
                 d="m -5240.8551,780.02663 c -6.0544,-2.14021 -13.5457,3.62134 -17.0138,8.37524 -7.917,11.50178 -15.6633,20.9732 -2.8561,31.14865 8.4781,6.99873 17.9701,11.53944 28.0998,11.10048 6.3789,-0.27647 15.3683,-3.72259 18.5769,-9.71883 14.4009,-24.5293 -6.811,-33.36742 -26.8068,-40.90554 z"
                 id="path28159"
                 sodipodi:nodetypes="cccscc" />
              <path
                 sodipodi:nodetypes="cccscc"
                 id="path28161"
                 d="m -5197.998,667.32822 c -6.0544,-2.14021 -13.5457,3.62134 -17.0138,8.37524 -7.917,11.50178 -15.6633,20.9732 -2.8561,31.14865 8.4781,6.99873 17.9701,11.53944 28.0998,11.10048 6.3789,-0.27647 15.3683,-3.72259 18.5769,-9.71883 14.4009,-24.5293 -6.811,-33.36742 -26.8068,-40.90554 z"
                 style="fill:#fcef3c;fill-opacity:1;fill-rule:evenodd;stroke:#000000;stroke-width:10.1606;stroke-linecap:butt;stroke-linejoin:miter;stroke-miterlimit:4;stroke-dasharray:none;stroke-opacity:1" />
            </g>
          </g>
          <g
             id="g28059"
             transform="matrix(0.1481878,0,0,0.1481878,1294.2907,-21.022522)"
             style="stroke:#000000;stroke-width:10.1606;stroke-miterlimit:4;stroke-dasharray:none;stroke-opacity:1">
            <path
               sodipodi:nodetypes="ccscsccccscccc"
               id="path28061"
               d="m -5563.4921,618.73016 c 106.5012,-90.45365 202.5663,19.23236 273.0159,42.85714 48.0432,-5.699 76.4118,-33.32664 124.0369,-83.80305 18.4877,-19.63272 80.7747,-35.58744 106.1218,-32.86362 15.1643,72.10115 -22.011,83.441 -75.5859,129.96619 -26.1617,22.71921 -47.888,39.73661 -65.6839,64.47826 41.1628,32.43726 91.384,42.74155 117.4603,116.66667 -70.2485,24.0704 -112.8444,-12.69483 -163.4921,-31.74603 62.3914,102.46205 -1.293,204.54638 -61.9047,262.69838 -57.102,-65.127 -35.262,-117.69114 -33.6107,-170.06271 1.2555,-39.81875 19.0814,-71.54549 49.4837,-121.2071 -43.6848,89.64269 -117.9463,157.88112 -169.0476,150 -22.1799,-44.10581 41.897,-153.20731 140.4761,-204.7619 -118.3902,10.41817 -202.7189,-73.01026 -241.2698,-122.22223 z"
               style="fill:#ffffff;fill-opacity:1;fill-rule:evenodd;stroke:#000000;stroke-width:10.1606;stroke-linecap:butt;stroke-linejoin:miter;stroke-miterlimit:4;stroke-dasharray:none;stroke-opacity:1" />
            <path
               sodipodi:nodetypes="cscsscsscscscsccsscscsc"
               id="path28063"
               d="m -5302.381,725.07936 c -41.9656,-0.75289 -108.565,-3.05403 -157.8481,2.39962 -72.472,8.01971 -151.4761,51.85626 -193.7392,122.99721 13.6607,23.29016 45.4546,17.21137 87.3311,19.77135 45.783,2.79878 117.0413,-7.49085 183.49,-31.18247 27.0431,-9.64197 65.2105,-33.74329 96.4564,-50.60645 3.7518,16.92519 -34.2907,-29.05796 -31.3406,-11.54904 3.5349,20.97898 19.3732,100.65352 31.427,134.3655 15.5945,43.61433 67.5778,77.96338 129.4615,91.58202 44.1761,-48.00149 16.0706,-112.26952 -19.5965,-158.30441 -26.2993,-33.94403 -56.9872,-51.59488 -72.467,-86.13999 45.9534,12.94488 97.4241,30.27057 155.5478,30.33952 93.9259,0.11143 192.4363,-32.052 217.4681,-104.9427 -80.1385,-46.45113 -174.164,-33.99819 -250.1799,-7.53212 -37.2335,12.9634 -75.5295,26.0234 -113.3122,39.27816 93.6347,-107.51079 120.9941,-241.36049 74.6032,-311.11112 -17.0282,-5.71632 -55.7834,26.34751 -67.9131,37.38243 -41.2363,37.51447 -53.0984,84.60026 -58.1036,145.97713 -3.6525,44.78993 -1.6443,73.72198 -2.5547,116.64044 -4.9811,-45.33048 3.4771,-92.77267 -7.6861,-135.2048 -20.9126,-79.49096 -56.0464,-155.84039 -134.3774,-174.31901 -43.4348,81.22651 -8.8827,142.11015 20.8106,208.09803 26.1301,58.06908 89.8637,67.25083 112.5227,122.0607 z"
               style="fill:#ffffff;fill-opacity:1;fill-rule:evenodd;stroke:#000000;stroke-width:10.1606;stroke-linecap:butt;stroke-linejoin:miter;stroke-miterlimit:4;stroke-dasharray:none;stroke-opacity:1" />
            <g
               transform="rotate(13.831079,-5349.5865,706.14411)"
               id="g28065"
               style="stroke:#000000;stroke-width:10.1606;stroke-miterlimit:4;stroke-dasharray:none;stroke-opacity:1">
              <path
                 style="fill:#fcef3c;fill-opacity:1;fill-rule:evenodd;stroke:#000000;stroke-width:10.1606;stroke-linecap:butt;stroke-linejoin:miter;stroke-miterlimit:4;stroke-dasharray:none;stroke-opacity:1"
                 d="m -5332.3695,737.20991 c -13.332,20.3303 -26.5643,33.05123 -4.2168,50.5935 14.1307,11.51587 29.8973,19.05186 46.6375,18.50251 10.5418,-0.34595 25.3478,-5.8026 30.5555,-15.4989 2.862,-5.32882 7.2441,-10.73027 7.0451,-16.81779 -0.3174,-9.71393 -1.5662,-24.26265 -9.4568,-29.54801 -25.7768,-14.31547 -46.8152,-34.19721 -70.5645,-7.23131 z"
                 id="path28067"
                 sodipodi:nodetypes="ccssscc" />
              <path
                 style="fill:#fcef3c;fill-opacity:1;fill-rule:evenodd;stroke:#000000;stroke-width:10.1606;stroke-linecap:butt;stroke-linejoin:miter;stroke-miterlimit:4;stroke-dasharray:none;stroke-opacity:1"
                 d="m -5211.3097,711.59704 c -8.7457,-2.97744 -20.1433,6.66884 -25.563,14.44208 -11.2541,18.43316 -26.2517,32.79587 -6.3303,49.56995 11.9726,10.51265 25.6025,17.05945 40.5105,15.66918 9.388,-0.87551 22.8273,-6.95419 27.951,-16.67893 20.9694,-40.08313 -3.7684,-50.97684 -36.5682,-63.00228 z"
                 id="path28069"
                 sodipodi:nodetypes="cccscc" />
              <path
                 style="fill:#fcef3c;fill-opacity:1;fill-rule:evenodd;stroke:#000000;stroke-width:10.1606;stroke-linecap:butt;stroke-linejoin:miter;stroke-miterlimit:4;stroke-dasharray:none;stroke-opacity:1"
                 d="m -5242.1784,614.33733 c -8.2461,-2.91844 -18.4314,4.8881 -23.1424,11.33505 -10.8309,16.5661 -22.1275,27.76764 -3.8224,42.28369 11.5559,9.51993 24.4863,15.70468 38.2744,15.12998 8.6828,-0.36189 20.9122,-5.02164 25.2673,-13.15585 18.6275,-34.84371 -9.4432,-45.35469 -36.5769,-55.59287 z"
                 id="path28071"
                 sodipodi:nodetypes="cccscc" />
              <path
                 style="fill:#fcef3c;fill-opacity:1;fill-rule:evenodd;stroke:#000000;stroke-width:10.1606;stroke-linecap:butt;stroke-linejoin:miter;stroke-miterlimit:4;stroke-dasharray:none;stroke-opacity:1"
                 d="m -5271.4749,665.8494 c -8.6523,-3.04438 -19.4297,5.35364 -24.4368,12.25994 -11.5716,17.95876 -23.6409,29.64685 -4.3554,45.08236 18.9471,15.87467 49.2019,24.47325 66.8352,1.60186 2.5535,-4.7819 6.4249,-9.64953 6.3372,-15.06408 -0.1403,-8.64017 -1.0204,-21.56995 -7.7831,-26.16399 -10.0273,-6.81178 -23.4532,-13.09133 -36.5971,-17.71609 z"
                 id="path28073"
                 sodipodi:nodetypes="ccccsss" />
              <path
                 style="fill:#fcef3c;fill-opacity:1;fill-rule:evenodd;stroke:#000000;stroke-width:10.1606;stroke-linecap:butt;stroke-linejoin:miter;stroke-miterlimit:4;stroke-dasharray:none;stroke-opacity:1"
                 d="m -5317.8143,603.43982 c -8.4099,-2.96335 -18.8637,5.15012 -23.7153,11.82909 -6.6977,9.22048 -12.695,18.39442 -14.0912,29.85854 -0.7645,6.27749 5.5787,10.17038 9.94,13.79006 11.754,9.75528 24.932,16.06155 39.0257,15.38871 8.8752,-0.42368 21.3997,-5.30227 25.8976,-13.72 2.4719,-4.62613 6.2238,-9.33295 6.1289,-14.57645 -0.1513,-8.36707 -1.029,-20.88939 -7.6061,-25.35001 -9.752,-6.6139 -22.8043,-12.71841 -35.5796,-17.21994 z"
                 id="path28075"
                 sodipodi:nodetypes="cssssssss" />
              <path
                 style="fill:#fcef3c;fill-opacity:1;fill-rule:evenodd;stroke:#000000;stroke-width:10.1606;stroke-linecap:butt;stroke-linejoin:miter;stroke-miterlimit:4;stroke-dasharray:none;stroke-opacity:1"
                 d="m -5355.7313,656.13459 c -9.4407,-3.29766 -21.3218,6.14518 -26.8718,13.87208 -12.3435,19.4602 -26.4884,32.93675 -5.2177,50.15645 13.1252,11.05295 27.898,18.12908 43.789,17.18247 17.8035,-1.63356 34.1301,-14.58337 36.4415,-32.87802 -0.067,-9.60292 -0.9014,-23.96663 -8.2581,-29.00574 -10.908,-7.47165 -25.5415,-14.31773 -39.8829,-19.32724 z"
                 id="path28077"
                 sodipodi:nodetypes="cccccss" />
              <path
                 style="fill:#fcef3c;fill-opacity:1;fill-rule:evenodd;stroke:#000000;stroke-width:10.1606;stroke-linecap:butt;stroke-linejoin:miter;stroke-miterlimit:4;stroke-dasharray:none;stroke-opacity:1"
                 d="m -5373.3722,733.87554 c -5.5182,-1.93267 -12.4368,3.52706 -15.6622,8.00264 -4.4529,6.17864 -8.4448,12.32276 -9.4209,19.97006 -0.5345,4.18748 3.6192,6.75002 6.4705,9.14046 7.6841,6.44238 16.3227,10.57899 25.5985,10.05978 5.8414,-0.32693 14.106,-3.64122 17.1076,-9.27381 1.6495,-3.09551 4.1416,-6.25124 4.1056,-9.74526 -0.058,-5.57549 -0.572,-13.91654 -4.8769,-16.85634 -6.3828,-4.35883 -14.9396,-8.36163 -23.3222,-11.29753 z"
                 id="path28079"
                 sodipodi:nodetypes="cssssssss" />
              <path
                 sodipodi:nodetypes="cccscc"
                 id="path28081"
                 d="m -5240.8551,780.02663 c -6.0544,-2.14021 -13.5457,3.62134 -17.0138,8.37524 -7.917,11.50178 -15.6633,20.9732 -2.8561,31.14865 8.4781,6.99873 17.9701,11.53944 28.0998,11.10048 6.3789,-0.27647 15.3683,-3.72259 18.5769,-9.71883 14.4009,-24.5293 -6.811,-33.36742 -26.8068,-40.90554 z"
                 style="fill:#fcef3c;fill-opacity:1;fill-rule:evenodd;stroke:#000000;stroke-width:10.1606;stroke-linecap:butt;stroke-linejoin:miter;stroke-miterlimit:4;stroke-dasharray:none;stroke-opacity:1" />
              <path
                 style="fill:#fcef3c;fill-opacity:1;fill-rule:evenodd;stroke:#000000;stroke-width:10.1606;stroke-linecap:butt;stroke-linejoin:miter;stroke-miterlimit:4;stroke-dasharray:none;stroke-opacity:1"
                 d="m -5197.998,667.32822 c -6.0544,-2.14021 -13.5457,3.62134 -17.0138,8.37524 -7.917,11.50178 -15.6633,20.9732 -2.8561,31.14865 8.4781,6.99873 17.9701,11.53944 28.0998,11.10048 6.3789,-0.27647 15.3683,-3.72259 18.5769,-9.71883 14.4009,-24.5293 -6.811,-33.36742 -26.8068,-40.90554 z"
                 id="path28083"
                 sodipodi:nodetypes="cccscc" />
            </g>
          </g>
        </g>
        <path
           sodipodi:nodetypes="ccccccccccccccccccccccccccccccccccccccccccccccccccccccccccccccccccccscccsccccccscccccccccccccccccsccscccccccccccccscccc"
           id="path3937"
           d="m 98.300742,120.7973 c -5.397859,6.9234 0.693672,18.59411 -15.220219,21.88181 15.926623,-0.47604 6.18546,13.15905 -6.886869,10.79133 5.789397,8.0704 15.483079,-4.46788 18.558679,0.52133 -7.462254,10.1375 -17.864749,3.63891 -23.735265,10.90686 9.354236,4.82562 16.587351,0.584 23.735265,-0.0681 v 4.87746 c -8.498334,3.58279 -17.833153,0.57491 -29.851495,1.62575 7.406216,0.13451 16.395744,5.37793 1.129161,7.42585 8.924572,1.7487 17.742935,3.92224 28.722334,-2.54836 l -0.54273,6.50325 C 80.748527,195.14749 70.12303,173.7011 56.759542,187.05002 l 15.197068,1.62585 -11.397849,3.2516 17.368138,2.70971 c -10.493579,0.75866 -17.906884,2.1324 -21.167357,4.33553 l 16.282583,0.54193 -32.301561,10.14281 35.015325,-5.26535 -15.389105,7.18138 c 10.819876,-3.96874 20.643729,0.0307 32.473187,-12.01468 l -0.258678,7.54299 c -11.533051,11.98491 -30.28363,0.53817 -60.788479,13.54848 18.272759,-1.86613 38.17374,1.57113 45.048579,0 -2.244938,7.10154 -14.72761,2.68882 -24.966685,8.67107 l 9.769627,1.08384 c -11.738977,8.6134 -20.359488,0.68152 -29.308773,1.08385 l 4.884783,5.41942 -13.026069,2.16774 c 19.39436,3.00698 30.205945,7.67526 68.625105,-3.21312 -20.081902,13.84876 -56.68451,9.17449 -77.30919,19.47133 l 43.420308,-3.7936 c -5.957002,3.34524 -18.342007,5.08602 -29.85144,7.04524 9.440051,3.67025 33.423442,-1.20819 33.734248,-5.08637 4.238094,0.4157 -9.172213,7.71232 -6.596553,7.79602 9.488723,-1.20963 28.553518,-17.14762 17.654876,-0.91813 L 95.295083,247.6317 v 8.24469 c -8.403669,12.21165 -16.329046,8.13798 -23.338473,9.21291 l 4.342067,2.70973 c -7.001605,0.10824 -14.35571,-0.48738 -22.795728,-3.2517 l 6.513105,5.4194 c -17.858101,-3.24144 -37.134141,-6.74501 -46.676861,1.08394 7.307548,-0.37897 15.604184,1.07768 17.181196,2.12921 l -16.095662,7.62562 24.615906,-4.33545 -17.186381,10.72315 c 6.62807,-5.24049 23.847052,-5.84786 39.037383,-5.31272 11.936322,0.21705 23.872644,-4.89006 35.808966,-7.50115 -2.329028,9.89608 -50.917918,16.62145 -67.078854,15.09727 l 16.054812,5.44895 c -4.076716,1.44514 -16.473666,2.89033 -21.943162,4.33545 10.971973,3.21806 23.928111,0.85687 44.423924,-2.603 -18.432093,4.51444 -32.780624,10.8787 -55.611779,10.44191 14.27887,6.22759 28.106713,6.53288 40.957407,2.77777 13.252015,3.30801 53.215211,-25.54324 43.963124,-23.65276 l -0.5428,39.01962 c 1.33899,8.31708 -1.746276,2.35854 -8.451023,11.16759 l 4.109053,-0.87073 1.464419,1.88648 6.676868,-2.97035 c 3.27986,4.87744 2.8125,-0.56255 4.67486,4.31494 l 2.38095,-0.52134 3.08755,-0.42642 0.16896,-2.82528 6.63597,2.35141 c -4.54978,-3.48566 -3.97415,-4.26162 -9.89248,-10.48043 l -1.62825,-35.76797 c 16.83662,6.89609 28.50314,16.82275 37.11689,18.44065 20.82669,3.91183 23.80701,-9.98098 38.86873,-9.76967 -34.42777,9.81462 -53.71313,-6.82971 -75.44288,-14.63232 l -0.54274,-5.41941 c 13.01464,5.76459 24.46001,14.36639 36.24896,16.70618 14.16001,2.81039 28.28867,-1.48099 39.19387,-4.78351 -15.02136,0.77218 -33.64901,3.25881 -34.13465,-3.87067 8.66445,0.9767 16.53526,1.951 25.99336,-5.88427 -29.5712,4.23632 -47.36725,-3.28491 -67.30154,-8.67104 l -0.54279,-5.41935 c 11.52632,4.61581 25.56723,13.22365 35.67592,10.76172 0,0 -16.97111,-12.03579 -11.79467,-8.59402 13.6316,9.06353 40.69469,13.03962 58.07469,2.16778 -14.61663,1.22669 -23.63445,3.49003 -31.47972,-1.6258 8.68406,1.68566 17.36813,-5.52553 26.05219,-10.83882 -12.43116,5.42374 -58.62119,13.92709 -75.98562,-1.08383 v -5.41947 c 32.34149,21.54777 38.64247,6.6243 51.0189,6.50331 -16.41258,0.6717 -24.86118,-1.18928 -30.39424,-5.96127 28.40867,7.18678 36.14832,-5.56283 43.96308,-13.54853 -20.32543,17.49471 -43.30274,5.09643 -65.52736,-3.06802 l 0.93962,-3.97717 c 34.73857,11.85892 46.34903,9.35088 57.78288,-0.37624 -8.08547,0.88805 -15.74154,3.92308 -24.80286,-0.0681 3.79921,-3.56448 16.32863,-4.08952 20.12801,-11.52578 -15.37981,8.11023 -42.15063,9.03361 -54.04765,-8.37188 l -0.14588,-5.67108 c 10.16658,14.20253 26.95407,15.5512 51.73063,8.6531 -11.19146,-0.40847 -25.71886,2.51899 -32.19666,-2.60314 3.00269,2.25201 25.31211,-7.26218 22.49109,-6.82302 -3.30254,0.51412 -30.32572,1.10597 -29.50086,-1.36516 10.22665,0.39251 23.22466,-2.61127 22.21722,-11.41029 0,0 -32.02767,7.58719 -34.19871,7.58719 -2.17099,0 -0.54271,-5.96139 -0.54271,-5.96139 9.28476,-7.40994 24.60459,-5.78097 36.90726,-8.67104 l -39.0783,0.54198 v -3.25164 c 15.55897,1.24693 15.37804,-6.41534 28.76601,-7.58714 -12.98746,-4.99317 -16.05716,4.74384 -28.76602,0 l -0.25088,-6.68691 c 6.87488,5.99588 17.71802,4.36891 24.5929,-2.31285 -8.40113,-1.6538 -18.77219,1.94556 -24.34201,-7.2584 l -0.54286,-4.87746 c 6.45586,7.12876 14.34834,4.20125 21.77424,4.53973 -4.7801,-1.29975 -10.04071,-0.19697 -13.85294,-6.33608 l -7.9213,-3.62306 c 0,0 -5.305634,-7.74067 0.54286,-3.79356 7.05579,4.7619 13.52789,2.12028 13.52789,2.12028 l -15.0102,-5.62362 c 5.73364,2.50814 8.19096,-1.53636 10.84659,-5.18423 -7.13136,1.9645 -9.06048,-11.26072 -13.957148,-16.3778 z"
           style="display:inline;opacity:1;fill:#5ab532;fill-opacity:1;fill-rule:evenodd;stroke:#000000;stroke-width:1.50567;stroke-linecap:butt;stroke-linejoin:round;stroke-miterlimit:4;stroke-dasharray:none;stroke-opacity:1" />
        <g
           id="g44404"
           style="stroke:#000000;stroke-width:1.50567;stroke-miterlimit:4;stroke-dasharray:none;stroke-opacity:1">
          <g
             style="stroke:#000000;stroke-width:1.50567;stroke-miterlimit:4;stroke-dasharray:none;stroke-opacity:1"
             id="g39537">
            <path
               style="fill:#fcef3c;fill-opacity:1;fill-rule:evenodd;stroke:#000000;stroke-width:1.50567;stroke-linecap:butt;stroke-linejoin:miter;stroke-miterlimit:4;stroke-dasharray:none;stroke-opacity:1"
               d="m 410.40109,409.06562 c -9.62375,-9.07756 -11.56372,-32.65277 -13.63266,-45.95951 5.39924,1.59876 11.68732,5.62028 15.06587,12.84361 3.96037,8.46727 6.29321,16.83393 7.67676,25.70762"
               id="path38490"
               sodipodi:nodetypes="ccsc" />
            <path
               style="fill:#fcef3c;fill-opacity:1;fill-rule:evenodd;stroke:#000000;stroke-width:1.50567;stroke-linecap:butt;stroke-linejoin:miter;stroke-miterlimit:4;stroke-dasharray:none;stroke-opacity:1"
               d="m 496.10912,487.52804 c -19.18393,-12.3773 -20.34456,-49.72528 -34.35429,-71.12474 -8.73672,-16.45864 -17.49032,-21.80169 -37.50947,-20.84724 -8.77265,0.41825 -15.30452,3.04468 -20.70178,7.12945 -5.54442,5.08413 -13.42396,11.34307 -14.14359,19.41657 -0.21367,4.2282 0.066,7.01183 -1.11256,9.85448 -2.24187,5.40734 -6.87444,9.79105 -10.9164,15.56983 -8.2153,11.26167 -18.90345,21.16463 -12.03866,30.00866 0.38821,4.52313 1.58789,8.04965 7.45431,9.12698 3.59322,-0.47798 9.06285,-3.36955 14.08454,-6.81219 4.83448,-3.31429 10.8158,-8.77518 14.59447,-12.03143 -6.55719,4.53871 -9.42711,8.20031 -18.67367,15.41053 -3.77544,2.94398 -5.42997,4.06803 -1.81546,5.11747 3.40687,-0.33595 8.16916,-1.95879 11.32112,-4.28703 6.68982,-4.94155 17.39892,-9.15676 25.96581,-9.25003 14.30324,27.68437 5.74693,53.51223 5.01626,79.79967 31.06232,3.77221 53.30287,-56.99136 72.82937,-67.08098 z"
               id="path38485"
               sodipodi:nodetypes="ccsccscccscscsccc" />
            <path
               sodipodi:nodetypes="cccccc"
               id="path38495"
               d="m 433.91146,392.90641 c -0.43161,2.93159 -6.82432,7.88767 -12.54456,6.29904 -11.79804,-18.21972 -27.09158,-69.49438 -3.56629,-83.72526 18.11256,-9.97195 26.78268,8.66596 28.90462,26.69819 -4.82372,-6.57727 -12.56876,-21.55561 -20.20867,-14.36658 -12.11792,11.74389 3.94929,56.21571 7.4149,65.09461 z"
               style="fill:#fcef3c;fill-opacity:1;fill-rule:evenodd;stroke:#000000;stroke-width:1.50567;stroke-linecap:butt;stroke-linejoin:miter;stroke-miterlimit:4;stroke-dasharray:none;stroke-opacity:1" />
            <path
               style="fill:#fcef3c;fill-opacity:1;fill-rule:evenodd;stroke:#000000;stroke-width:1.50567;stroke-linecap:butt;stroke-linejoin:miter;stroke-miterlimit:4;stroke-dasharray:none;stroke-opacity:1"
               d="m 438.03256,401.81263 c -0.12184,1.42799 -9.96121,0.21302 -10.34155,-3.57858 -0.991,-20.01364 5.82245,-54.54425 22.39642,-71.55479 8.17867,-8.65143 18.59394,-11.72377 27.18985,-7.89937 12.80643,6.05749 13.69345,21.14071 10.67986,33.5402 -1.58773,-9.45959 -5.23998,-22.34987 -17.41889,-19.76486 -16.27722,5.04192 -28.33397,50.15258 -26.99014,75.56865"
               id="path38492"
               sodipodi:nodetypes="ccccccc" />
            <path
               style="fill:#fcef3c;fill-opacity:1;fill-rule:evenodd;stroke:#000000;stroke-width:1.50567;stroke-linecap:butt;stroke-linejoin:miter;stroke-miterlimit:4;stroke-dasharray:none;stroke-opacity:1"
               d="m 437.6664,407.30864 c -1.30687,-8.84062 4.54747,-14.29613 9.61626,-20.68502 4.18633,-6.06462 21.74242,-21.94756 30.23636,-19.3371 -0.008,25.02505 -17.02085,27.907 -24.28885,48.52457 -0.51912,0.46367 -3.81174,-1.00428 -4.37865,-0.60052"
               id="path38488"
               sodipodi:nodetypes="ccccc" />
            <path
               style="fill:#fcef3c;fill-opacity:1;fill-rule:evenodd;stroke:#000000;stroke-width:1.50567;stroke-linecap:butt;stroke-linejoin:miter;stroke-miterlimit:4;stroke-dasharray:none;stroke-opacity:1"
               d="m 417.41472,474.85527 c 16.834,-2.47435 20.49606,-12.76479 26.39593,-22.18209"
               id="path38499"
               sodipodi:nodetypes="cc" />
            <path
               style="fill:#fcef3c;fill-opacity:1;fill-rule:evenodd;stroke:#000000;stroke-width:1.50567;stroke-linecap:butt;stroke-linejoin:miter;stroke-miterlimit:4;stroke-dasharray:none;stroke-opacity:1"
               d="m 368.48976,474.94082 c -0.76957,-2.79907 0.0157,-7.22888 1.77801,-10.54221 4.36355,-0.87849 3.1663,1.2629 2.73881,3.85007 -0.0254,0.28058 0.0868,0.55674 0.13021,0.83511 0.4187,2.68547 -2.07093,4.91065 -4.64703,5.85703 z"
               id="path38503"
               sodipodi:nodetypes="cccsc" />
            <path
               style="fill:#fcef3c;fill-opacity:1;fill-rule:evenodd;stroke:#000000;stroke-width:1.50567;stroke-linecap:butt;stroke-linejoin:miter;stroke-miterlimit:4;stroke-dasharray:none;stroke-opacity:1"
               d="m 426.28121,430.22221 c -1.96168,1.42166 -6.26054,4.07195 -8.05149,5.36988 -2.88775,5.5778 -8.29566,5.13412 -11.45311,4.8169 -2.0519,0.32592 -2.20209,-1.46117 -4.25399,-1.13525 1.3736,-11.26498 5.66454,-11.95666 10.79261,-11.43531 4.01493,0.40817 8.46122,0.82391 12.96598,2.38378 z"
               id="path38505"
               sodipodi:nodetypes="ccccsc" />
            <circle
               transform="matrix(0.4836796,-0.09474379,0.07541175,0.6076724,15.619342,280.43375)"
               style="fill:#fcef3c;fill-opacity:1;stroke:#000000;stroke-width:2.74411;stroke-miterlimit:4;stroke-dasharray:none;stroke-opacity:1"
               id="path38507"
               cx="760.70099"
               cy="370.70352"
               r="9.2597313" />
            <path
               sodipodi:nodetypes="cc"
               id="path39501"
               d="m 443.55512,408.13232 c -3.47373,-3.7315 8.128,-23.73223 32.5404,-40.56984"
               style="fill:none;fill-rule:evenodd;stroke:#000000;stroke-width:1.50567;stroke-linecap:butt;stroke-linejoin:miter;stroke-miterlimit:4;stroke-dasharray:none;stroke-opacity:1" />
          </g>
          <path
             sodipodi:nodetypes="ccc"
             id="path44402"
             d="m 411.50794,438.96825 c -0.77503,0.0243 -1.31729,-6.08875 -0.39683,-10.31746 1.11929,3.04435 1.88913,6.22848 0.39683,10.31746 z"
             style="fill:none;fill-rule:evenodd;stroke:#000000;stroke-width:1.50567;stroke-linecap:butt;stroke-linejoin:miter;stroke-miterlimit:4;stroke-dasharray:none;stroke-opacity:1" />
        </g>
      </g>
      <g
         id="layer2"
         inkscape:label="Reflet final"
         style="stroke:#000000;stroke-width:1.50567;stroke-miterlimit:4;stroke-dasharray:none;stroke-opacity:1">
        <path
           sodipodi:nodetypes="cccccc"
           d="m 300.00001,658.5 c 0,0 298.5,-112.32031 298.5,-397.77183 0,-285.451504 0,-258.5516835 0,-258.5516835 H 1.5 V 260.72817 C 1.5,546.17969 300.00001,658.5 300.00001,658.5 Z"
           style="opacity:1;fill:url(#radialGradient3163);fill-opacity:1;fill-rule:evenodd;stroke:#000000;stroke-width:1.50567;stroke-linecap:butt;stroke-linejoin:miter;stroke-miterlimit:4;stroke-dasharray:none;stroke-opacity:1"
           id="path2875"
           inkscape:export-xdpi="144"
           inkscape:export-ydpi="144" />
      </g>
      <g
         id="layer1-6"
         inkscape:label="Contour final"
         style="stroke:#000000;stroke-width:1.50567;stroke-miterlimit:4;stroke-dasharray:none;stroke-opacity:1">
        <path
           sodipodi:nodetypes="cccccc"
           d="m 299.99999,658.50028 c 0,0 -298.49999,-112.32036 -298.49999,-397.772 0,-285.451616 0,-258.5517843 0,-258.5517843 H 598.49999 V 260.72828 c 0,285.45164 -298.5,397.772 -298.5,397.772 z"
           style="opacity:1;fill:none;fill-opacity:1;fill-rule:evenodd;stroke:#000000;stroke-width:1.50567;stroke-linecap:butt;stroke-linejoin:miter;stroke-miterlimit:4;stroke-dasharray:none;stroke-opacity:1"
           id="path1411"
           inkscape:export-xdpi="144"
           inkscape:export-ydpi="144" />
      </g>
    </g>
  </g>
</svg>
