<?xml version="1.0" encoding="UTF-8" standalone="no"?>
<!-- Created with Inkscape (http://www.inkscape.org/) -->

<svg
   width="123.74319mm"
   height="135.41945mm"
   viewBox="0 0 123.74319 135.41945"
   version="1.1"
   id="svg16950"
   inkscape:export-filename="/home/saturn/central/montblanc/docs/doc-assets/logo192.png"
   inkscape:export-xdpi="144"
   inkscape:export-ydpi="144"
   inkscape:version="1.1 (ce6663b3b7, 2021-05-25)"
   sodipodi:docname="logo.svg"
   xmlns:inkscape="http://www.inkscape.org/namespaces/inkscape"
   xmlns:sodipodi="http://sodipodi.sourceforge.net/DTD/sodipodi-0.dtd"
   xmlns:xlink="http://www.w3.org/1999/xlink"
   xmlns="http://www.w3.org/2000/svg"
   xmlns:svg="http://www.w3.org/2000/svg">
  <sodipodi:namedview
     id="namedview16952"
     pagecolor="#ffffff"
     bordercolor="#666666"
     borderopacity="1.0"
     inkscape:pageshadow="2"
     inkscape:pageopacity="0.0"
     inkscape:pagecheckerboard="0"
     inkscape:document-units="mm"
     showgrid="false"
     inkscape:zoom="0.2973261"
     inkscape:cx="144.62235"
     inkscape:cy="948.45357"
     inkscape:window-width="1920"
     inkscape:window-height="1051"
     inkscape:window-x="0"
     inkscape:window-y="0"
     inkscape:window-maximized="1"
     inkscape:current-layer="layer1" />
  <defs
     id="defs16947">
    <path
       id="SVGID_1_"
       d="m 300,556.6 c 0,0 -92.5,-34.8 -92.5,-123.3 0,-88.5 0,-80.1 0,-80.1 h 185 v 80.1 c 0,88.5 -92.5,123.3 -92.5,123.3 z" />
  </defs>
  <g
     inkscape:label="Layer 1"
     inkscape:groupmode="layer"
     id="layer1"
     transform="translate(-39.531927,-58.632806)">
    <g
       id="g17073"
       transform="matrix(0.20683084,0,0,0.20589034,39.354274,58.394194)"
       style="stroke:#000000;stroke-width:1.28214;stroke-miterlimit:4;stroke-dasharray:none;stroke-opacity:1"
       inkscape:export-filename="/home/saturn/central/montblanc/docs/doc-assets/logo512.png"
       inkscape:export-xdpi="144"
       inkscape:export-ydpi="144">
      <path
         id="path2875_5_"
         class="st0"
         d="m 299.9,658.2 c 0,0 298.6,-112.3 298.6,-397.8 V 1.8 H 1.5 v 258.6 c 0,285.5 298.4,397.8 298.4,397.8 z"
         style="stroke:#000000;stroke-width:1.28214;stroke-miterlimit:4;stroke-dasharray:none;stroke-opacity:1" />
      <g
         id="layer4"
         inkscape:label="Meubles"
         style="stroke:#000000;stroke-width:1.28214;stroke-miterlimit:4;stroke-dasharray:none;stroke-opacity:1">
</g>
      <g
         id="g17019"
         style="stroke:#000000;stroke-width:1.28214;stroke-miterlimit:4;stroke-dasharray:none;stroke-opacity:1">
	<path
   class="st1"
   d="m 78.2,489.5 c 88.4,118.5 221.7,168.7 221.7,168.7 0,0 133.4,-50.2 221.9,-168.7 L 300,3.6 Z"
   id="path17017"
   style="stroke:#000000;stroke-width:1.28214;stroke-miterlimit:4;stroke-dasharray:none;stroke-opacity:1" />

</g>
      <g
         id="g17037"
         style="stroke:#000000;stroke-width:1.28214;stroke-miterlimit:4;stroke-dasharray:none;stroke-opacity:1">
	<g
   id="layer3_1_"
   style="stroke:#000000;stroke-width:1.28214;stroke-miterlimit:4;stroke-dasharray:none;stroke-opacity:1">
		<path
   id="path2855_1_"
   class="st2"
   d="m 300,556.6 c 0,0 92.5,-34.8 92.5,-123.3 0,-88.5 0,-80.1 0,-80.1 h -185 v 80.1 c 0,88.5 92.5,123.3 92.5,123.3 z"
   style="stroke:#000000;stroke-width:1.28214;stroke-miterlimit:4;stroke-dasharray:none;stroke-opacity:1" />

	</g>

	<g
   id="layer4_1_"
   style="stroke:#000000;stroke-width:1.28214;stroke-miterlimit:4;stroke-dasharray:none;stroke-opacity:1">
		<g
   id="g17032"
   style="stroke:#000000;stroke-width:1.28214;stroke-miterlimit:4;stroke-dasharray:none;stroke-opacity:1">
			<g
   id="g17030"
   style="stroke:#000000;stroke-width:1.28214;stroke-miterlimit:4;stroke-dasharray:none;stroke-opacity:1">
				<defs
   id="defs17024">
					<path
   id="path17060"
   d="m 300,556.6 c 0,0 -92.5,-34.8 -92.5,-123.3 0,-88.5 0,-80.1 0,-80.1 h 185 v 80.1 c 0,88.5 -92.5,123.3 -92.5,123.3 z" />

				</defs>

				<clipPath
   id="SVGID_2_">
					<use
   xlink:href="#SVGID_1_"
   style="overflow:visible"
   id="use17026"
   x="0"
   y="0"
   width="100%"
   height="100%" />

				</clipPath>

				<path
   id="rect2836"
   class="st3"
   d="m 279,339.9 v 86.2 H 173.5 v 41.8 H 279 v 90.4 h 41.8 V 467.9 H 440.6 V 426 H 320.8 V 339.8 H 279 Z"
   clip-path="url(#SVGID_2_)"
   style="stroke:#000000;stroke-width:1.28214;stroke-miterlimit:4;stroke-dasharray:none;stroke-opacity:1" />

			</g>

		</g>

	</g>

	<g
   id="layer1_1_"
   style="stroke:#000000;stroke-width:1.28214;stroke-miterlimit:4;stroke-dasharray:none;stroke-opacity:1">
		<path
   id="path1411_1_"
   class="st4"
   d="m 300,556.6 c 0,0 -92.5,-34.8 -92.5,-123.3 0,-88.5 0,-80.1 0,-80.1 h 185 v 80.1 c 0,88.5 -92.5,123.3 -92.5,123.3 z"
   style="stroke:#000000;stroke-width:1.28214;stroke-miterlimit:4;stroke-dasharray:none;stroke-opacity:1" />

	</g>

</g>
      <path
         id="path2875_3_"
         class="st5"
         d="m 299.9,658.2 c 0,0 298.6,-112.3 298.6,-397.8 V 1.8 H 1.5 v 258.6 c 0,285.5 298.4,397.8 298.4,397.8 z"
         style="stroke:#000000;stroke-width:1.28214;stroke-miterlimit:4;stroke-dasharray:none;stroke-opacity:1" />
    </g>
  </g>
  <style
     type="text/css"
     id="style17011">
	.st0{fill:#2B5DF2;}
	.st1{fill:#FFFFFF;stroke:#000000;stroke-width:3;}
	.st2{fill:#E20909;}
	.st3{clip-path:url(#SVGID_2_);fill:#FFFFFF;stroke:#313131;stroke-width:3;stroke-linecap:round;}
	.st4{fill:none;stroke:#000000;stroke-width:3;}
	.st5{fill:url(#path2875_1_);stroke:#000000;stroke-width:3.0003;stroke-miterlimit:10;}
</style>
</svg>
